<svg height="512" viewBox="0 0 512 512" width="512" xmlns="http://www.w3.org/2000/svg"><g id="flat"><path d="m160 314.667a142.883 142.883 0 0 0 -5.9 65.392l.563 3.941-5.428-5.428a72.514 72.514 0 0 1 -21.235-51.272 72.513 72.513 0 0 1 26.092-55.707l5.908-4.926-1.808 4.521a53.111 53.111 0 0 0 1.808 43.479z" fill="#f55441"/><path d="m158.192 271.188 1.808-4.521-5.908 4.923a72.506 72.506 0 0 0 -25.707 48.392 16.9 16.9 0 0 0 11.615-4.953l15.17-15.169a53.081 53.081 0 0 1 3.022-28.672z" fill="#d3463c"/><path d="m248 16h16v144h-16z" fill="#315a70"/><path d="m248 136h16v24h-16z" fill="#203b47"/><path d="m168 232-48 48 20 28 44-44z" fill="#315a70"/><path d="m140 308a16.971 16.971 0 0 1 -24 0l-44-44 8-40 60 60a16.971 16.971 0 0 1 0 24z" fill="#6ad3d3"/><path d="m88 280a214.34 214.34 0 0 0 -8.845 98.088l.845 5.912-8.142-8.142a108.772 108.772 0 0 1 -31.858-76.912 108.776 108.776 0 0 1 39.137-83.561l8.863-7.385-2.713 6.782a79.673 79.673 0 0 0 2.713 65.218z" fill="#f55441"/><path d="m352 314.667a142.883 142.883 0 0 1 5.9 65.392l-.567 3.941 5.428-5.428a72.514 72.514 0 0 0 21.239-51.272 72.513 72.513 0 0 0 -26.092-55.707l-5.908-4.926 1.808 4.521a53.111 53.111 0 0 1 -1.808 43.479z" fill="#f55441"/><path d="m344 232 48 48-20 28-44-44z" fill="#315a70"/><path d="m372 308a16.971 16.971 0 0 0 24 0l44-44-8-40-60 60a16.971 16.971 0 0 0 0 24z" fill="#6ad3d3"/><path d="m424 280a214.34 214.34 0 0 1 8.845 98.088l-.845 5.912 8.142-8.142a108.772 108.772 0 0 0 31.858-76.912 108.776 108.776 0 0 0 -39.137-83.561l-8.863-7.385 2.713 6.782a79.673 79.673 0 0 1 -2.713 65.218z" fill="#f55441"/><circle cx="256" cy="240" fill="#6ad3d3" r="96"/><path d="m349.527 285.527a103.381 103.381 0 0 0 10.188-37.812l-15.715-15.715-16 32z" fill="#203b47"/><path d="m319.454 167.968a132.007 132.007 0 0 1 -131.454 120.032 133.5 133.5 0 0 1 -15.681-.931 96 96 0 1 0 147.135-119.1z" fill="#4eb7b4"/><path d="m24 416h464v80h-464z" fill="#e6e6e6"/><path d="m24 416h464v24h-464z" fill="#ccc"/><path d="m24 384h464v48h-464z" fill="#645960"/><rect fill="#19af19" height="16" rx="8" width="16" x="88" y="400"/><rect fill="#ffaf00" height="16" rx="8" width="16" x="64" y="400"/><rect fill="#e11919" height="16" rx="8" width="16" x="40" y="400"/><circle cx="256" cy="240" fill="#f8f8f8" r="48"/><circle cx="256" cy="240" fill="#e11919" r="16"/><path d="m230.849 280.884a48.008 48.008 0 0 0 70.371-57 132.391 132.391 0 0 1 -70.371 57z" fill="#e6e6e6"/></g></svg>